<svg xmlns="http://www.w3.org/2000/svg" xmlns:xlink="http://www.w3.org/1999/xlink" width="480" zoomAndPan="magnify" viewBox="0 0 360 179.999997" height="240" preserveAspectRatio="xMidYMid meet" version="1.0"><defs><g/><clipPath id="3c590468dc"><rect x="0" width="356" y="0" height="180"/></clipPath></defs><rect x="-36" width="432" fill="#ffffff" y="-18" height="215.999996" fill-opacity="1"/><rect x="-36" width="432" fill="#ffffff" y="-18" height="215.999996" fill-opacity="1"/><g transform="matrix(1, 0, 0, 1, 1, 0)"><g clip-path="url(#3c590468dc)"><g fill="#f6a102" fill-opacity="1"><g transform="translate(1.025997, 152.777281)"><g><path d="M 5.082031 0 L 5.082031 -134.773438 L 65.4375 -134.773438 C 75.875 -134.773438 84.703125 -133.347656 91.925781 -130.492188 C 99.371094 -127.550781 105.03125 -123.347656 108.90625 -117.882812 C 112.804688 -112.378906 114.757812 -105.929688 114.757812 -98.539062 C 114.757812 -93.140625 113.566406 -88.207031 111.183594 -83.730469 C 108.8125 -79.277344 105.503906 -75.558594 101.253906 -72.574219 C 97.0625 -69.628906 92.1875 -67.597656 86.632812 -66.476562 L 85.964844 -69.796875 L 89.351562 -69.796875 L 89.351562 -68.515625 L 85.964844 -68.515625 L 86.09375 -71.898438 C 92.289062 -71.664062 97.9375 -70.097656 103.039062 -67.191406 C 108.175781 -64.265625 112.265625 -60.25 115.304688 -55.140625 C 118.359375 -50.007812 119.886719 -44.03125 119.886719 -37.207031 C 119.886719 -29.339844 117.828125 -22.316406 113.703125 -16.144531 C 109.609375 -10.015625 103.835938 -5.214844 96.375 -1.742188 C 89.039062 1.679688 80.347656 3.386719 70.3125 3.386719 L 5.082031 3.386719 Z M 11.855469 0 L 8.46875 0 L 8.46875 -3.386719 L 70.3125 -3.386719 C 79.347656 -3.386719 87.082031 -4.886719 93.515625 -7.882812 C 99.828125 -10.824219 104.679688 -14.832031 108.070312 -19.910156 C 111.433594 -24.941406 113.113281 -30.707031 113.113281 -37.207031 C 113.113281 -42.789062 111.90625 -47.609375 109.484375 -51.675781 C 107.054688 -55.761719 103.785156 -58.96875 99.683594 -61.304688 C 95.546875 -63.664062 90.929688 -64.9375 85.835938 -65.128906 L 82.578125 -65.253906 L 82.578125 -72.570312 L 85.296875 -73.117188 C 89.921875 -74.050781 93.941406 -75.71875 97.363281 -78.121094 C 100.726562 -80.480469 103.339844 -83.414062 105.203125 -86.914062 C 107.054688 -90.394531 107.980469 -94.269531 107.980469 -98.539062 C 107.980469 -104.492188 106.445312 -109.632812 103.378906 -113.964844 C 100.28125 -118.335938 95.632812 -121.746094 89.433594 -124.191406 C 83.015625 -126.730469 75.015625 -127.996094 65.4375 -127.996094 L 8.46875 -127.996094 L 8.46875 -131.386719 L 11.855469 -131.386719 Z M 44.136719 -31.871094 L 60.816406 -31.871094 C 66.050781 -31.871094 69.863281 -32.769531 72.257812 -34.5625 C 73.289062 -35.335938 74.058594 -36.289062 74.566406 -37.421875 C 75.117188 -38.640625 75.390625 -40.109375 75.390625 -41.828125 C 75.390625 -44.230469 74.875 -46.214844 73.835938 -47.789062 C 72.796875 -49.363281 71.292969 -50.574219 69.328125 -51.417969 C 67.167969 -52.347656 64.5 -52.808594 61.328125 -52.808594 L 44.136719 -52.808594 L 44.136719 -56.199219 L 47.523438 -56.199219 L 47.523438 -28.484375 L 44.136719 -28.484375 Z M 40.75 -25.097656 L 40.75 -59.585938 L 61.328125 -59.585938 C 65.429688 -59.585938 68.988281 -58.9375 72 -57.640625 C 75.210938 -56.261719 77.707031 -54.222656 79.488281 -51.519531 C 81.273438 -48.816406 82.167969 -45.585938 82.167969 -41.828125 C 82.167969 -39.140625 81.691406 -36.742188 80.746094 -34.640625 C 79.757812 -32.445312 78.285156 -30.613281 76.320312 -29.140625 C 72.726562 -26.445312 67.558594 -25.097656 60.816406 -25.097656 Z M 44.136719 -81.652344 L 58.765625 -81.652344 C 61.441406 -81.652344 63.769531 -82.0625 65.753906 -82.875 C 67.554688 -83.613281 68.9375 -84.65625 69.910156 -85.996094 C 70.828125 -87.261719 71.285156 -88.878906 71.285156 -90.839844 C 71.285156 -92.371094 71.027344 -93.6875 70.515625 -94.785156 C 70.027344 -95.824219 69.289062 -96.714844 68.292969 -97.457031 C 65.984375 -99.167969 62.976562 -100.027344 59.277344 -100.027344 L 44.136719 -100.027344 L 44.136719 -103.414062 L 47.523438 -103.414062 L 47.523438 -78.265625 L 44.136719 -78.265625 Z M 40.75 -74.878906 L 40.75 -106.800781 L 59.277344 -106.800781 C 64.472656 -106.800781 68.824219 -105.5 72.332031 -102.894531 C 74.242188 -101.472656 75.683594 -99.726562 76.652344 -97.65625 C 77.589844 -95.644531 78.0625 -93.375 78.0625 -90.839844 C 78.0625 -87.414062 77.171875 -84.472656 75.394531 -82.019531 C 73.671875 -79.640625 71.316406 -77.835938 68.328125 -76.609375 C 65.519531 -75.457031 62.332031 -74.878906 58.765625 -74.878906 Z M 40.75 -74.878906 "/></g></g></g><g fill="#f6a102" fill-opacity="1"><g transform="translate(118.019655, 152.777281)"><g><path d="M 5.082031 0 L 5.082031 -134.773438 L 65.4375 -134.773438 C 75.875 -134.773438 84.703125 -133.347656 91.925781 -130.492188 C 99.371094 -127.550781 105.03125 -123.347656 108.90625 -117.882812 C 112.804688 -112.378906 114.757812 -105.929688 114.757812 -98.539062 C 114.757812 -93.140625 113.566406 -88.207031 111.183594 -83.730469 C 108.8125 -79.277344 105.503906 -75.558594 101.253906 -72.574219 C 97.0625 -69.628906 92.1875 -67.597656 86.632812 -66.476562 L 85.964844 -69.796875 L 89.351562 -69.796875 L 89.351562 -68.515625 L 85.964844 -68.515625 L 86.09375 -71.898438 C 92.289062 -71.664062 97.9375 -70.097656 103.039062 -67.191406 C 108.175781 -64.265625 112.265625 -60.25 115.304688 -55.140625 C 118.359375 -50.007812 119.886719 -44.03125 119.886719 -37.207031 C 119.886719 -29.339844 117.828125 -22.316406 113.703125 -16.144531 C 109.609375 -10.015625 103.835938 -5.214844 96.375 -1.742188 C 89.039062 1.679688 80.347656 3.386719 70.3125 3.386719 L 5.082031 3.386719 Z M 11.855469 0 L 8.46875 0 L 8.46875 -3.386719 L 70.3125 -3.386719 C 79.347656 -3.386719 87.082031 -4.886719 93.515625 -7.882812 C 99.828125 -10.824219 104.679688 -14.832031 108.070312 -19.910156 C 111.433594 -24.941406 113.113281 -30.707031 113.113281 -37.207031 C 113.113281 -42.789062 111.90625 -47.609375 109.484375 -51.675781 C 107.054688 -55.761719 103.785156 -58.96875 99.683594 -61.304688 C 95.546875 -63.664062 90.929688 -64.9375 85.835938 -65.128906 L 82.578125 -65.253906 L 82.578125 -72.570312 L 85.296875 -73.117188 C 89.921875 -74.050781 93.941406 -75.71875 97.363281 -78.121094 C 100.726562 -80.480469 103.339844 -83.414062 105.203125 -86.914062 C 107.054688 -90.394531 107.980469 -94.269531 107.980469 -98.539062 C 107.980469 -104.492188 106.445312 -109.632812 103.378906 -113.964844 C 100.28125 -118.335938 95.632812 -121.746094 89.433594 -124.191406 C 83.015625 -126.730469 75.015625 -127.996094 65.4375 -127.996094 L 8.46875 -127.996094 L 8.46875 -131.386719 L 11.855469 -131.386719 Z M 44.136719 -31.871094 L 60.816406 -31.871094 C 66.050781 -31.871094 69.863281 -32.769531 72.257812 -34.5625 C 73.289062 -35.335938 74.058594 -36.289062 74.566406 -37.421875 C 75.117188 -38.640625 75.390625 -40.109375 75.390625 -41.828125 C 75.390625 -44.230469 74.875 -46.214844 73.835938 -47.789062 C 72.796875 -49.363281 71.292969 -50.574219 69.328125 -51.417969 C 67.167969 -52.347656 64.5 -52.808594 61.328125 -52.808594 L 44.136719 -52.808594 L 44.136719 -56.199219 L 47.523438 -56.199219 L 47.523438 -28.484375 L 44.136719 -28.484375 Z M 40.75 -25.097656 L 40.75 -59.585938 L 61.328125 -59.585938 C 65.429688 -59.585938 68.988281 -58.9375 72 -57.640625 C 75.210938 -56.261719 77.707031 -54.222656 79.488281 -51.519531 C 81.273438 -48.816406 82.167969 -45.585938 82.167969 -41.828125 C 82.167969 -39.140625 81.691406 -36.742188 80.746094 -34.640625 C 79.757812 -32.445312 78.285156 -30.613281 76.320312 -29.140625 C 72.726562 -26.445312 67.558594 -25.097656 60.816406 -25.097656 Z M 44.136719 -81.652344 L 58.765625 -81.652344 C 61.441406 -81.652344 63.769531 -82.0625 65.753906 -82.875 C 67.554688 -83.613281 68.9375 -84.65625 69.910156 -85.996094 C 70.828125 -87.261719 71.285156 -88.878906 71.285156 -90.839844 C 71.285156 -92.371094 71.027344 -93.6875 70.515625 -94.785156 C 70.027344 -95.824219 69.289062 -96.714844 68.292969 -97.457031 C 65.984375 -99.167969 62.976562 -100.027344 59.277344 -100.027344 L 44.136719 -100.027344 L 44.136719 -103.414062 L 47.523438 -103.414062 L 47.523438 -78.265625 L 44.136719 -78.265625 Z M 40.75 -74.878906 L 40.75 -106.800781 L 59.277344 -106.800781 C 64.472656 -106.800781 68.824219 -105.5 72.332031 -102.894531 C 74.242188 -101.472656 75.683594 -99.726562 76.652344 -97.65625 C 77.589844 -95.644531 78.0625 -93.375 78.0625 -90.839844 C 78.0625 -87.414062 77.171875 -84.472656 75.394531 -82.019531 C 73.671875 -79.640625 71.316406 -77.835938 68.328125 -76.609375 C 65.519531 -75.457031 62.332031 -74.878906 58.765625 -74.878906 Z M 40.75 -74.878906 "/></g></g></g><g fill="#f6a102" fill-opacity="1"><g transform="translate(235.013313, 152.777281)"><g><path d="M 5.082031 0 L 5.082031 -134.773438 L 65.179688 -134.773438 C 75.488281 -134.773438 84.546875 -132.71875 92.355469 -128.609375 C 100.242188 -124.457031 106.378906 -118.617188 110.765625 -111.085938 C 115.136719 -103.585938 117.324219 -94.871094 117.324219 -84.9375 C 117.324219 -74.898438 115.074219 -66.167969 110.578125 -58.742188 C 106.066406 -51.292969 99.765625 -45.5625 91.671875 -41.550781 C 83.691406 -37.59375 74.433594 -35.617188 63.894531 -35.617188 L 26.636719 -35.617188 L 26.636719 -70.105469 L 56.710938 -70.105469 C 60.371094 -70.105469 63.453125 -70.726562 65.949219 -71.964844 C 68.320312 -73.140625 70.136719 -74.808594 71.398438 -76.964844 C 72.691406 -79.171875 73.339844 -81.832031 73.339844 -84.9375 C 73.339844 -88.078125 72.699219 -90.714844 71.417969 -92.851562 C 70.160156 -94.945312 68.351562 -96.5625 65.984375 -97.699219 C 63.476562 -98.910156 60.386719 -99.515625 56.710938 -99.515625 L 44.136719 -99.515625 L 44.136719 -102.902344 L 47.523438 -102.902344 L 47.523438 3.386719 L 5.082031 3.386719 Z M 11.855469 0 L 8.46875 0 L 8.46875 -3.386719 L 44.136719 -3.386719 L 44.136719 0 L 40.75 0 L 40.75 -106.289062 L 56.710938 -106.289062 C 61.417969 -106.289062 65.492188 -105.460938 68.925781 -103.804688 C 72.507812 -102.078125 75.273438 -99.589844 77.226562 -96.335938 C 79.152344 -93.125 80.113281 -89.328125 80.113281 -84.9375 C 80.113281 -80.605469 79.15625 -76.804688 77.242188 -73.539062 C 75.300781 -70.21875 72.539062 -67.671875 68.960938 -65.898438 C 65.515625 -64.1875 61.433594 -63.332031 56.710938 -63.332031 L 30.023438 -63.332031 L 30.023438 -66.71875 L 33.410156 -66.71875 L 33.410156 -39.003906 L 30.023438 -39.003906 L 30.023438 -42.390625 L 63.894531 -42.390625 C 73.375 -42.390625 81.628906 -44.136719 88.664062 -47.621094 C 95.578125 -51.050781 100.953125 -55.925781 104.78125 -62.25 C 108.625 -68.597656 110.546875 -76.160156 110.546875 -84.9375 C 110.546875 -93.652344 108.671875 -101.230469 104.914062 -107.675781 C 101.175781 -114.085938 95.9375 -119.066406 89.199219 -122.613281 C 82.378906 -126.203125 74.371094 -127.996094 65.179688 -127.996094 L 8.46875 -127.996094 L 8.46875 -131.386719 L 11.855469 -131.386719 Z M 11.855469 0 "/></g></g></g></g></g></svg>