<svg width="200" height="60" viewBox="0 0 200 60" fill="none"
    xmlns="http://www.w3.org/2000/svg">
    <!-- Background -->
    <rect width="200" height="60" rx="8" fill="#F8F6F2"/>

    <!-- Hardhat icon -->
    <path d="M20 25c0-2.2 1.8-4 4-4h8c2.2 0 4 1.8 4 4v8c0 2.2-1.8 4-4 4H24c-2.2 0-4-1.8-4-4v-8z" fill="#1D1E22"/>
    <path d="M24 21h8c1.1 0 2 .9 2 2v6c0 1.1-.9 2-2 2h-8c-1.1 0-2-.9-2-2v-6c0-1.1.9-2 2-2z" fill="#F28C28"/>

    <!-- Monitor icon -->
    <rect x="40" y="20" width="30" height="20" rx="2" fill="#1D1E22"/>
    <rect x="42" y="22" width="26" height="16" rx="1" fill="#2A6FE4"/>
    <rect x="50" y="40" width="10" height="3" rx="1" fill="#1D1E22"/>

    <!-- Text -->
    <text x="80" y="30" font-family="Arial, sans-serif" font-size="18" font-weight="bold" fill="#1D1E22">Estimator Assistant</text>
    <text x="80" y="45" font-family="Arial, sans-serif" font-size="12" fill="#F28C28">by MyBuilderBot</text>
</svg>
